<svg width="145" height="137" viewBox="0 0 145 137" fill="none" xmlns="http://www.w3.org/2000/svg">
<path d="M144.656 51.3935C140.815 40.2417 134.554 30.1549 126.357 21.912C118.159 13.6691 108.245 7.49064 97.3797 3.85378C86.5143 0.21691 74.9884 -0.781059 63.692 0.936936C52.3956 2.65493 41.631 7.04292 32.2296 13.7621C22.8281 20.4812 15.0413 29.3517 9.47046 39.6885C3.89962 50.0253 0.693819 61.5519 0.100623 73.3781C-0.492572 85.2043 1.54271 97.0137 6.04929 107.894C10.5559 118.775 17.4132 128.436 26.0917 136.131L34.1827 126.313C26.9548 119.904 21.2436 111.858 17.4903 102.796C13.7369 93.7343 12.0418 83.8987 12.5359 74.0492C13.0299 64.1996 15.6999 54.5996 20.3396 45.9905C24.9793 37.3814 31.4646 29.9935 39.2947 24.3974C47.1248 18.8013 56.0902 15.1468 65.4985 13.7159C74.9067 12.2851 84.5062 13.1162 93.5556 16.1452C102.605 19.1742 110.862 24.32 117.689 31.1852C124.516 38.0504 129.731 46.4513 132.93 55.7391L144.656 51.3935Z" fill="url(#paint0_linear_213_180)"/>
<defs>
<linearGradient id="paint0_linear_213_180" x1="74.5" y1="0.119446" x2="42.5518" y2="140.085" gradientUnits="userSpaceOnUse">
<stop stop-color="#F2A02C"/>
<stop offset="1" stop-color="#FAEE92"/>
</linearGradient>
</defs>
</svg>
