<svg width="26" height="28" viewBox="0 0 26 28" fill="none" xmlns="http://www.w3.org/2000/svg">
<path d="M24.9619 21.1326C23.3621 23.7034 20.9445 25.6618 18.0976 26.693C15.2506 27.7242 12.1396 27.7684 9.26457 26.8184C6.38949 25.8684 3.91726 23.9795 2.24514 21.4551C0.573022 18.9307 -0.201892 15.9175 0.0449234 12.8996C0.291739 9.88171 1.54595 7.03443 3.60602 4.81528C5.66609 2.59613 8.41238 1.13397 11.4036 0.663766C14.3948 0.19356 17.4573 0.742608 20.0988 2.22268C22.7404 3.70276 24.8077 6.02791 25.9685 8.82452L23.5963 9.80917C22.6564 7.54463 20.9824 5.66185 18.8434 4.46336C16.7044 3.26488 14.2246 2.82029 11.8025 3.20103C9.38032 3.58178 7.15652 4.76576 5.48839 6.56271C3.82025 8.35965 2.80466 10.6652 2.6048 13.1089C2.40494 15.5527 3.03243 17.9926 4.38642 20.0367C5.74041 22.0808 7.74229 23.6104 10.0704 24.3796C12.3985 25.1489 14.9175 25.1131 17.2229 24.2781C19.5282 23.4431 21.4858 21.8573 22.7812 19.7756L24.9619 21.1326Z" fill="#454545"/>
</svg>
