<svg width="27" height="28" viewBox="0 0 27 28" fill="none" xmlns="http://www.w3.org/2000/svg">
<path d="M11.1557 27.2949C8.1738 26.7691 5.45519 25.2561 3.43678 22.999C1.41838 20.7419 0.217375 17.8717 0.0267727 14.8498C-0.16383 11.8278 0.667034 8.82956 2.38585 6.33673C4.10467 3.84391 6.61163 2.0013 9.50388 1.105C12.3961 0.208699 15.5057 0.310753 18.333 1.39476C21.1603 2.47877 23.541 4.48179 25.0927 7.08195C26.6444 9.68211 27.2768 12.7284 26.8885 15.7314C26.5002 18.7343 25.1136 21.5195 22.9515 23.6394L21.1927 21.8457C22.9524 20.1202 24.081 17.8533 24.3971 15.4092C24.7132 12.965 24.1984 10.4856 22.9354 8.36931C21.6725 6.25301 19.7348 4.62273 17.4336 3.74044C15.1325 2.85815 12.6016 2.77509 10.2475 3.5046C7.89347 4.23411 5.85302 5.73383 4.45405 7.76277C3.05509 9.79171 2.37884 12.2321 2.53397 14.6917C2.68911 17.1513 3.66661 19.4873 5.30942 21.3244C6.95223 23.1615 9.16494 24.3929 11.592 24.8209L11.1557 27.2949Z" fill="#D9D9D9"/>
</svg>
