<svg width="24" height="25" viewBox="0 0 24 25" fill="none" xmlns="http://www.w3.org/2000/svg">
<path d="M19.9 13.1313C19.7397 12.942 19.6513 12.6987 19.6513 12.4468C19.6513 12.1948 19.7397 11.9515 19.9 11.7622L21.18 10.2686C21.3211 10.1054 21.4087 9.90005 21.4302 9.68203C21.4518 9.46401 21.4062 9.2445 21.3 9.05502L19.3 5.46621C19.1949 5.27693 19.0349 5.12691 18.8428 5.03751C18.6506 4.94811 18.4362 4.9239 18.23 4.96834L16.35 5.36248C16.1108 5.41375 15.8618 5.37243 15.6499 5.24631C15.438 5.1202 15.278 4.91801 15.2 4.67791L14.59 2.77979C14.5229 2.57377 14.3951 2.39483 14.2246 2.26827C14.0542 2.1417 13.8497 2.07391 13.64 2.07447H9.64002C9.42195 2.06266 9.20615 2.12522 9.02558 2.25258C8.84501 2.37994 8.7096 2.5651 8.64002 2.77979L8.08002 4.67791C8.00202 4.91801 7.84199 5.1202 7.63013 5.24631C7.41827 5.37243 7.16924 5.41375 6.93002 5.36248L5.00002 4.96834C4.80457 4.93969 4.60532 4.97168 4.42737 5.06028C4.24941 5.14887 4.10072 5.29011 4.00002 5.46621L2.00002 9.05502C1.89118 9.24239 1.84224 9.46066 1.8602 9.67862C1.87816 9.89658 1.9621 10.1031 2.10002 10.2686L3.37002 11.7622C3.53034 11.9515 3.61875 12.1948 3.61875 12.4468C3.61875 12.6987 3.53034 12.942 3.37002 13.1313L2.10002 14.6249C1.9621 14.7904 1.87816 14.9969 1.8602 15.2149C1.84224 15.4328 1.89118 15.6511 2.00002 15.8385L4.00002 19.4273C4.10512 19.6166 4.26514 19.7666 4.45727 19.856C4.6494 19.9454 4.86384 19.9696 5.07002 19.9252L6.95002 19.531C7.18924 19.4798 7.43827 19.5211 7.65013 19.6472C7.86199 19.7733 8.02202 19.9755 8.10002 20.2156L8.71002 22.1137C8.7796 22.3284 8.91501 22.5136 9.09558 22.6409C9.27615 22.7683 9.49195 22.8308 9.71002 22.819H13.71C13.9197 22.8196 14.1242 22.7518 14.2946 22.6252C14.4651 22.4987 14.5929 22.3197 14.66 22.1137L15.27 20.2156C15.348 19.9755 15.508 19.7733 15.7199 19.6472C15.9318 19.5211 16.1808 19.4798 16.42 19.531L18.3 19.9252C18.5062 19.9696 18.7206 19.9454 18.9128 19.856C19.1049 19.7666 19.2649 19.6166 19.37 19.4273L21.37 15.8385C21.4762 15.649 21.5218 15.4295 21.5002 15.2115C21.4787 14.9935 21.3911 14.7881 21.25 14.6249L19.9 13.1313ZM18.41 14.5212L19.21 15.4547L17.93 17.7574L16.75 17.5084C16.0298 17.3557 15.2806 17.4826 14.6446 17.865C14.0086 18.2474 13.5302 18.8587 13.3 19.5829L12.92 20.7446H10.36L10 19.5621C9.76987 18.838 9.2914 18.2267 8.65542 17.8443C8.01945 17.4619 7.27024 17.335 6.55002 17.4877L5.37002 17.7366L4.07002 15.4443L4.87002 14.5108C5.36197 13.9403 5.63395 13.2018 5.63395 12.4364C5.63395 11.671 5.36197 10.9324 4.87002 10.3619L4.07002 9.42842L5.35002 7.14652L6.53002 7.39545C7.25024 7.54815 7.99945 7.42126 8.63542 7.03885C9.2714 6.65644 9.74987 6.04515 9.98002 5.32099L10.36 4.14893H12.92L13.3 5.33137C13.5302 6.05552 14.0086 6.66682 14.6446 7.04922C15.2806 7.43163 16.0298 7.55853 16.75 7.40582L17.93 7.15689L19.21 9.45954L18.41 10.393C17.9236 10.9622 17.655 11.6965 17.655 12.4571C17.655 13.2177 17.9236 13.952 18.41 14.5212ZM11.64 8.29784C10.8489 8.29784 10.0755 8.54117 9.41774 8.99706C8.75994 9.45295 8.24725 10.1009 7.9445 10.859C7.64175 11.6171 7.56254 12.4514 7.71688 13.2562C7.87122 14.061 8.25218 14.8002 8.81159 15.3805C9.371 15.9607 10.0837 16.3559 10.8597 16.5159C11.6356 16.676 12.4398 16.5939 13.1708 16.2799C13.9017 15.9658 14.5264 15.4341 14.9659 14.7518C15.4054 14.0695 15.64 13.2673 15.64 12.4468C15.64 11.3464 15.2186 10.2911 14.4684 9.51303C13.7183 8.73496 12.7009 8.29784 11.64 8.29784ZM11.64 14.5212C11.2445 14.5212 10.8578 14.3995 10.5289 14.1716C10.2 13.9437 9.94363 13.6197 9.79226 13.2406C9.64088 12.8616 9.60128 12.4445 9.67845 12.042C9.75562 11.6396 9.9461 11.27 10.2258 10.9799C10.5055 10.6898 10.8619 10.4922 11.2498 10.4122C11.6378 10.3321 12.0399 10.3732 12.4054 10.5302C12.7708 10.6872 13.0832 10.9531 13.303 11.2942C13.5227 11.6354 13.64 12.0365 13.64 12.4468C13.64 12.9969 13.4293 13.5246 13.0542 13.9136C12.6792 14.3027 12.1705 14.5212 11.64 14.5212Z" fill="white"/>
</svg>
