<svg width="11" height="18" viewBox="0 0 11 18" fill="none" xmlns="http://www.w3.org/2000/svg">
<path d="M6.81892 1.83346L5.67618 7.99065L9.81597 8.00493L4.18096 16.3519L5.32371 9.57803L1.18418 9.56323L6.81892 1.83346ZM6.81969 0.794771C6.79235 0.794771 6.76501 0.795794 6.73817 0.797855C6.5594 0.812673 6.44089 0.873956 6.30037 0.970815C6.22124 1.02492 6.1499 1.09012 6.08843 1.16453C6.06997 1.18687 6.05255 1.21009 6.03625 1.23413L0.360979 8.93689C0.136885 9.25188 0.103967 9.66764 0.276152 10.0151C0.448084 10.3625 0.795746 10.5827 1.17683 10.5856L4.10043 10.6074L3.18127 16.1611C3.09391 16.6384 3.34206 17.1141 3.77885 17.3057C3.90579 17.3617 4.04252 17.3905 4.18069 17.3904C4.49898 17.3904 4.76055 17.2377 4.9568 16.9619L10.6392 8.61489C10.8633 8.29989 10.8959 7.88363 10.724 7.5367C10.5521 7.18926 10.2044 6.96904 9.82331 6.9662L6.89971 6.961L7.809 2.0778C7.82827 1.99785 7.83797 1.91579 7.83788 1.83344C7.83788 1.2715 7.40158 0.813435 6.85565 0.795258C6.84351 0.794739 6.83159 0.794739 6.81971 0.794739L6.81969 0.794771Z" fill="black"/>
</svg>
