<svg width="24" height="24" viewBox="0 0 24 24" fill="none" xmlns="http://www.w3.org/2000/svg">
<path d="M14.4984 21.5016L14.625 21.375L14.4984 21.5016ZM14.4984 21.5016C14.4903 21.8306 14.4506 22.1559 14.381 22.4732L13.5 13.5H14.5V15.2473C14.5416 15.2491 14.5832 15.25 14.625 15.25H14.5V20.25V21.375C14.5 21.4172 14.4995 21.4594 14.4984 21.5016ZM14.4984 21.5016L13.8295 22.1705M14.4984 21.5016L13.8295 22.1705M11.9792 13.5C11.8294 13.1476 11.75 12.7654 11.75 12.375V13.5H10.5H9.5V15.2473C9.45844 15.2491 9.41677 15.25 9.375 15.25H9.5V20.25V21.375C9.5 21.4172 9.50052 21.4594 9.50156 21.5016M11.9792 13.5L3.75 9.3465L1.5 9.35228L1.5 19.875C1.5 20.5712 1.77656 21.2389 2.26884 21.7312C2.76113 22.2234 3.42881 22.5 4.125 22.5H8.25H9.375C9.45773 22.5 9.53952 22.4909 9.61903 22.4732C9.5494 22.1559 9.50968 21.8306 9.50156 21.5016M11.9792 13.5H12.0208H11.9792ZM9.50156 21.5016L10.145 22.145M9.50156 21.5016L10.145 22.145M13.8295 22.1705C13.6185 21.9595 13.5 21.6734 13.5 21.375V20.25V17.5L13.8295 22.1705ZM10.145 22.145L10.1705 22.1705L10.145 22.145ZM3.78269 9.18136L3.78478 9.18237L3.78269 9.18136Z" fill="black" stroke="black" stroke-width="8"/>
</svg>
